<svg width="500" height="500" version="1.1" xmlns="http://www.w3.org/2000/svg" desc="Created with imagetracer.js version 1.2.6" ><path fill="rgb(0,0,0)" stroke="rgb(0,0,0)" stroke-width="1" opacity="0" d="M 0 0 L 500 0 L 500 500 L 0 500 L 0 0 Z M 204 164 L 189 168 L 173 178 Q 159 190 155 213 Q 155 237 166 251 L 180 263 L 198 270 Q 202 269 204 271 L 223 270 L 235 265 L 328 182 L 331 178 L 265 227 L 266 223 L 266 213 L 264 202 L 255 185 Q 246 173 231 167 L 218 164 L 204 164 Z M 286 233 L 248 267 Q 245 266 246 269 L 189 319 L 184 325 L 266 264 L 269 261 L 270 262 L 270 261 L 272 259 L 288 259 L 287 263 L 288 264 L 288 336 L 317 336 L 317 259 L 347 259 L 348 258 L 348 235 L 347 233 L 286 233 Z M 162 250 Q 161 252 164 251 Q 166 252 164 254 L 165 255 L 166 252 Q 165 249 162 250 Z M 158 252 L 158 254 L 160 253 L 158 252 Z M 158 254 L 156 256 L 157 262 L 158 256 L 158 254 Z M 168 254 L 167 262 L 168 262 L 168 254 Z M 161 255 L 159 257 L 160 261 Q 159 257 162 256 L 161 255 Z M 172 258 L 171 261 L 172 261 L 172 258 Z M 161 261 L 160 263 Q 161 265 166 264 L 167 262 L 165 263 L 161 261 Z M 171 261 L 170 263 L 169 265 L 171 264 L 171 261 Z M 275 263 L 275 264 L 277 264 L 275 263 Z M 161 266 L 163 268 L 168 267 L 168 266 L 164 267 L 161 266 Z M 276 266 L 276 267 L 278 267 L 276 266 Z M 329 267 L 329 268 L 332 268 L 329 267 Z " /><path fill="rgb(0,0,0)" stroke="rgb(0,0,0)" stroke-width="1" opacity="0" d="M 208.5 190 Q 224.8 190.2 231 200.5 L 236 211.5 L 236 223.5 Q 233.4 235.4 224.5 241 Q 217.9 245.9 204.5 244 Q 195.6 241.9 191 235.5 Q 184.2 227.8 185 212.5 Q 187.4 199.9 196.5 194 L 208.5 190 Z " /><path fill="rgb(97,96,96)" stroke="rgb(97,96,96)" stroke-width="1" opacity="0.34509803921568627" d="M 203.5 164 L 218 164.5 L 203.5 165 L 203.5 164 Z " /><path fill="rgb(97,96,96)" stroke="rgb(97,96,96)" stroke-width="1" opacity="0.34509803921568627" d="M 197.5 165 L 200 165.5 L 197.5 166 L 197.5 165 Z " /><path fill="rgb(97,96,96)" stroke="rgb(97,96,96)" stroke-width="1" opacity="0.34509803921568627" d="M 221.5 165 L 224 165.5 L 221.5 166 L 221.5 165 Z " /><path fill="rgb(97,96,96)" stroke="rgb(97,96,96)" stroke-width="1" opacity="0.34509803921568627" d="M 236.5 170 L 239 171.5 L 237.5 171 L 236.5 170 Z " /><path fill="rgb(97,96,96)" stroke="rgb(97,96,96)" stroke-width="1" opacity="0.34509803921568627" d="M 180.5 172 L 179.5 174 L 180.5 172 Z " /><path fill="rgb(97,96,96)" stroke="rgb(97,96,96)" stroke-width="1" opacity="0.34509803921568627" d="M 242.5 173 L 244.5 176 L 242.5 173 Z " /><path fill="rgb(97,96,96)" stroke="rgb(97,96,96)" stroke-width="1" opacity="0.34509803921568627" d="M 176.5 175 L 174.5 178 L 176.5 175 Z " /><path fill="rgb(97,96,96)" stroke="rgb(97,96,96)" stroke-width="1" opacity="0.34509803921568627" d="M 246.5 176 L 254.5 185 L 246.5 176 Z " /><path fill="rgb(97,96,96)" stroke="rgb(97,96,96)" stroke-width="1" opacity="0.34509803921568627" d="M 332.5 176 L 327.5 182 L 324.5 183 L 326.5 180 L 332.5 176 Z " /><path fill="rgb(97,96,96)" stroke="rgb(97,96,96)" stroke-width="1" opacity="0.34509803921568627" d="M 172.5 178 L 168.5 183 L 172.5 178 Z " /><path fill="rgb(97,96,96)" stroke="rgb(97,96,96)" stroke-width="1" opacity="0.34509803921568627" d="M 321.5 184 L 324 184.5 L 316 191.5 L 320 187.5 Q 317.3 185.8 321.5 184 Z " /><path fill="rgb(97,96,96)" stroke="rgb(97,96,96)" stroke-width="1" opacity="0.34509803921568627" d="M 166.5 185 L 165.5 187 L 166.5 185 Z " /><path fill="rgb(97,96,96)" stroke="rgb(97,96,96)" stroke-width="1" opacity="0.34509803921568627" d="M 255.5 186 L 256.5 188 L 255.5 186 Z " /><path fill="rgb(97,96,96)" stroke="rgb(97,96,96)" stroke-width="1" opacity="0.34509803921568627" d="M 317.5 187 L 314.5 191 L 317.5 187 Z " /><path fill="rgb(97,96,96)" stroke="rgb(97,96,96)" stroke-width="1" opacity="0.34509803921568627" d="M 257.5 189 L 260 192.5 L 258 191.5 L 257.5 189 Z " /><path fill="rgb(97,96,96)" stroke="rgb(97,96,96)" stroke-width="1" opacity="0.34509803921568627" d="M 204.5 190 L 208 190.5 L 204.5 191 L 204.5 190 Z " /><path fill="rgb(97,96,96)" stroke="rgb(97,96,96)" stroke-width="1" opacity="0.34509803921568627" d="M 212.5 190 L 216 190.5 L 212.5 191 L 212.5 190 Z " /><path fill="rgb(97,96,96)" stroke="rgb(97,96,96)" stroke-width="1" opacity="0.34509803921568627" d="M 312.5 191 L 310.5 194 L 312.5 191 Z " /><path fill="rgb(97,96,96)" stroke="rgb(97,96,96)" stroke-width="1" opacity="0.34509803921568627" d="M 223.5 193 L 224.5 195 L 223.5 193 Z " /><path fill="rgb(97,96,96)" stroke="rgb(97,96,96)" stroke-width="1" opacity="0.34509803921568627" d="M 313.5 193 L 308.5 199 L 313.5 193 Z " /><path fill="rgb(97,96,96)" stroke="rgb(97,96,96)" stroke-width="1" opacity="0.34509803921568627" d="M 308.5 194 L 306.5 197 L 308.5 194 Z " /><path fill="rgb(97,96,96)" stroke="rgb(97,96,96)" stroke-width="1" opacity="0.34509803921568627" d="M 194.5 195 L 190.5 200 L 194.5 195 Z " /><path fill="rgb(97,96,96)" stroke="rgb(97,96,96)" stroke-width="1" opacity="0.34509803921568627" d="M 226.5 195 L 230.5 200 L 226.5 195 Z " /><path fill="rgb(97,96,96)" stroke="rgb(97,96,96)" stroke-width="1" opacity="0.34509803921568627" d="M 304.5 197 L 302.5 200 L 304.5 197 Z " /><path fill="rgb(97,96,96)" stroke="rgb(97,96,96)" stroke-width="1" opacity="0.34509803921568627" d="M 306.5 199 L 299.5 207 L 306.5 199 Z " /><path fill="rgb(97,96,96)" stroke="rgb(97,96,96)" stroke-width="1" opacity="0.34509803921568627" d="M 189.5 201 L 188.5 203 L 189.5 201 Z " /><path fill="rgb(97,96,96)" stroke="rgb(97,96,96)" stroke-width="1" opacity="0.34509803921568627" d="M 231.5 201 L 232.5 203 L 231.5 201 Z " /><path fill="rgb(97,96,96)" stroke="rgb(97,96,96)" stroke-width="1" opacity="0.34509803921568627" d="M 263.5 201 L 264 203.5 L 263 203.5 L 263.5 201 Z " /><path fill="rgb(97,96,96)" stroke="rgb(97,96,96)" stroke-width="1" opacity="0.34509803921568627" d="M 299.5 201 L 298.5 203 L 299.5 201 Z " /><path fill="rgb(97,96,96)" stroke="rgb(97,96,96)" stroke-width="1" opacity="0.34509803921568627" d="M 295.5 204 L 293.5 207 L 295.5 204 Z " /><path fill="rgb(97,96,96)" stroke="rgb(97,96,96)" stroke-width="1" opacity="0.34509803921568627" d="M 264.5 205 L 265 208.5 L 264 208.5 L 264.5 205 Z " /><path fill="rgb(97,96,96)" stroke="rgb(97,96,96)" stroke-width="1" opacity="0.34509803921568627" d="M 156.5 206 L 157 208.5 L 156 208.5 L 156.5 206 Z " /><path fill="rgb(97,96,96)" stroke="rgb(97,96,96)" stroke-width="1" opacity="0.34509803921568627" d="M 291.5 207 L 289.5 210 L 291.5 207 Z " /><path fill="rgb(97,96,96)" stroke="rgb(97,96,96)" stroke-width="1" opacity="0.34509803921568627" d="M 185.5 209 L 186 211.5 L 185 211.5 L 185.5 209 Z " /><path fill="rgb(97,96,96)" stroke="rgb(97,96,96)" stroke-width="1" opacity="0.34509803921568627" d="M 295.5 209 L 290.5 215 L 295.5 209 Z " /><path fill="rgb(97,96,96)" stroke="rgb(97,96,96)" stroke-width="1" opacity="0.34509803921568627" d="M 287.5 210 L 285.5 213 L 287.5 210 Z " /><path fill="rgb(97,96,96)" stroke="rgb(97,96,96)" stroke-width="1" opacity="0.34509803921568627" d="M 155.5 212 L 156 222.5 L 155 222.5 L 155.5 212 Z " /><path fill="rgb(97,96,96)" stroke="rgb(97,96,96)" stroke-width="1" opacity="0.34509803921568627" d="M 265.5 212 L 266 222.5 L 265 222.5 L 265.5 212 Z " /><path fill="rgb(97,96,96)" stroke="rgb(97,96,96)" stroke-width="1" opacity="0.34509803921568627" d="M 236.5 214 L 237 221.5 L 236 221.5 L 236.5 214 Z " /><path fill="rgb(97,96,96)" stroke="rgb(97,96,96)" stroke-width="1" opacity="0.34509803921568627" d="M 282.5 214 L 280.5 217 L 282.5 214 Z " /><path fill="rgb(97,96,96)" stroke="rgb(97,96,96)" stroke-width="1" opacity="0.34509803921568627" d="M 278.5 217 L 276.5 220 L 278.5 217 Z " /><path fill="rgb(97,96,96)" stroke="rgb(97,96,96)" stroke-width="1" opacity="0.34509803921568627" d="M 286.5 217 L 281.5 223 L 286.5 217 Z " /><path fill="rgb(97,96,96)" stroke="rgb(97,96,96)" stroke-width="1" opacity="0.34509803921568627" d="M 274.5 220 L 271.5 224 L 274.5 220 Z " /><path fill="rgb(97,96,96)" stroke="rgb(97,96,96)" stroke-width="1" opacity="0.34509803921568627" d="M 185.5 222 L 186 224.5 L 185 224.5 L 185.5 222 Z " /><path fill="rgb(97,96,96)" stroke="rgb(97,96,96)" stroke-width="1" opacity="0.34509803921568627" d="M 269.5 224 L 267.5 227 L 269.5 224 Z " /><path fill="rgb(97,96,96)" stroke="rgb(97,96,96)" stroke-width="1" opacity="0.34509803921568627" d="M 277.5 225 L 271.5 232 L 277.5 225 Z " /><path fill="rgb(97,96,96)" stroke="rgb(97,96,96)" stroke-width="1" opacity="0.34509803921568627" d="M 156.5 226 L 157 228.5 L 156 228.5 L 156.5 226 Z " /><path fill="rgb(97,96,96)" stroke="rgb(97,96,96)" stroke-width="1" opacity="0.34509803921568627" d="M 264.5 226 L 265.5 228 Q 262.7 228.7 264.5 226 Z " /><path fill="rgb(97,96,96)" stroke="rgb(97,96,96)" stroke-width="1" opacity="0.34509803921568627" d="M 189.5 233 L 190.5 235 L 189.5 233 Z " /><path fill="rgb(97,96,96)" stroke="rgb(97,96,96)" stroke-width="1" opacity="0.34509803921568627" d="M 268.5 233 L 263.5 239 L 268.5 233 Z " /><path fill="rgb(97,96,96)" stroke="rgb(97,96,96)" stroke-width="1" opacity="0.34509803921568627" d="M 285.5 233 L 346.5 233 L 348 234.5 L 348 257.5 L 346.5 259 L 317 258.5 L 347 258 L 347 234 L 285.5 234 L 281 237.5 L 285.5 233 Z " /><path fill="rgb(97,96,96)" stroke="rgb(97,96,96)" stroke-width="1" opacity="0.34509803921568627" d="M 231.5 234 L 225.5 241 L 231.5 234 Z " /><path fill="rgb(97,96,96)" stroke="rgb(97,96,96)" stroke-width="1" opacity="0.34509803921568627" d="M 159.5 237 L 161 240.5 L 160 240.5 L 159.5 237 Z " /><path fill="rgb(97,96,96)" stroke="rgb(97,96,96)" stroke-width="1" opacity="0.34509803921568627" d="M 278.5 239 L 272.5 246 L 278.5 239 Z " /><path fill="rgb(97,96,96)" stroke="rgb(97,96,96)" stroke-width="1" opacity="0.34509803921568627" d="M 196.5 240 L 201 242.5 L 199.5 243 L 196.5 240 Z " /><path fill="rgb(97,96,96)" stroke="rgb(97,96,96)" stroke-width="1" opacity="0.34509803921568627" d="M 259.5 241 L 254.5 247 L 259.5 241 Z " /><path fill="rgb(97,96,96)" stroke="rgb(97,96,96)" stroke-width="1" opacity="0.34509803921568627" d="M 161.5 242 L 164 245.5 L 162 244.5 L 161.5 242 Z " /><path fill="rgb(97,96,96)" stroke="rgb(97,96,96)" stroke-width="1" opacity="0.34509803921568627" d="M 205.5 244 L 216 244.5 L 205.5 245 L 205.5 244 Z " /><path fill="rgb(97,96,96)" stroke="rgb(97,96,96)" stroke-width="1" opacity="0.34509803921568627" d="M 270.5 246 L 263.5 254 L 270.5 246 Z " /><path fill="rgb(97,96,96)" stroke="rgb(97,96,96)" stroke-width="1" opacity="0.34509803921568627" d="M 164.5 247 L 165.5 249 L 164.5 247 Z " /><path fill="rgb(97,96,96)" stroke="rgb(97,96,96)" stroke-width="1" opacity="0.34509803921568627" d="M 161.5 250 L 165.5 251 L 166.5 250 L 174 257.5 L 166 251.5 L 164.5 255 L 164 253.5 Q 166.3 252.2 163.5 251 Q 158.5 250.5 158 254.5 L 157 261.5 L 160.5 266 L 163.5 267 L 167.5 266 L 167.5 267 L 162.5 268 L 157 263.5 L 156 255.5 L 158 252 L 161.5 250 Z " /><path fill="rgb(97,96,96)" stroke="rgb(97,96,96)" stroke-width="1" opacity="0.34509803921568627" d="M 249.5 250 L 243.5 257 L 249.5 250 Z " /><path fill="rgb(97,96,96)" stroke="rgb(97,96,96)" stroke-width="1" opacity="0.34509803921568627" d="M 162.5 254 L 160 257.5 Q 159.3 262.3 162.5 263 L 167 262 L 167.5 254 L 168 261.5 Q 167 265 161.5 264 Q 158.2 262.3 159 256.5 L 162.5 254 Z " /><path fill="rgb(97,96,96)" stroke="rgb(97,96,96)" stroke-width="1" opacity="0.34509803921568627" d="M 261.5 254 L 255.5 261 L 261.5 254 Z " /><path fill="rgb(97,96,96)" stroke="rgb(97,96,96)" stroke-width="1" opacity="0.34509803921568627" d="M 171.5 258 L 172 260.5 L 169.5 265 L 168 264.5 L 171.5 258 Z " /><path fill="rgb(97,96,96)" stroke="rgb(97,96,96)" stroke-width="1" opacity="0.34509803921568627" d="M 240.5 258 L 234.5 265 L 240.5 258 Z " /><path fill="rgb(97,96,96)" stroke="rgb(97,96,96)" stroke-width="1" opacity="0.34509803921568627" d="M 271.5 258 L 287.5 258 L 289 259.5 L 289 335 L 316.5 335 L 316.5 336 L 288 336 L 288 263.5 L 288 261.5 L 287.5 259 L 271.5 259 L 269.5 262 L 269 260.5 L 271.5 258 Z " /><path fill="rgb(97,96,96)" stroke="rgb(97,96,96)" stroke-width="1" opacity="0.34509803921568627" d="M 176.5 259 L 181 262.5 L 179.5 263 L 176.5 259 Z " /><path fill="rgb(97,96,96)" stroke="rgb(97,96,96)" stroke-width="1" opacity="0.34509803921568627" d="M 267.5 261 L 265.5 264 L 267.5 261 Z " /><path fill="rgb(97,96,96)" stroke="rgb(97,96,96)" stroke-width="1" opacity="0.34509803921568627" d="M 278.5 261 L 276.5 264 L 274 263.5 L 278.5 261 Z " /><path fill="rgb(97,96,96)" stroke="rgb(97,96,96)" stroke-width="1" opacity="0.34509803921568627" d="M 251.5 263 L 245.5 270 L 246 268.5 Q 245.3 266.3 247.5 267 L 251.5 263 Z " /><path fill="rgb(97,96,96)" stroke="rgb(97,96,96)" stroke-width="1" opacity="0.34509803921568627" d="M 263.5 264 L 261.5 267 L 263.5 264 Z " /><path fill="rgb(97,96,96)" stroke="rgb(97,96,96)" stroke-width="1" opacity="0.34509803921568627" d="M 232.5 265 L 231.5 267 L 232.5 265 Z " /><path fill="rgb(97,96,96)" stroke="rgb(97,96,96)" stroke-width="1" opacity="0.34509803921568627" d="M 275.5 266 L 278 266.5 L 275.5 267 L 275.5 266 Z " /><path fill="rgb(97,96,96)" stroke="rgb(97,96,96)" stroke-width="1" opacity="0.34509803921568627" d="M 259.5 267 L 257.5 270 L 259.5 267 Z " /><path fill="rgb(97,96,96)" stroke="rgb(97,96,96)" stroke-width="1" opacity="0.34509803921568627" d="M 328.5 267 L 332 267.5 L 328.5 268 L 328.5 267 Z " /><path fill="rgb(97,96,96)" stroke="rgb(97,96,96)" stroke-width="1" opacity="0.34509803921568627" d="M 197.5 269 L 200 269.5 L 197.5 270 L 197.5 269 Z " /><path fill="rgb(97,96,96)" stroke="rgb(97,96,96)" stroke-width="1" opacity="0.34509803921568627" d="M 220.5 269 L 223 269.5 L 220.5 270 L 220.5 269 Z " /><path fill="rgb(97,96,96)" stroke="rgb(97,96,96)" stroke-width="1" opacity="0.34509803921568627" d="M 203.5 270 L 217 270.5 L 203.5 271 L 203.5 270 Z " /><path fill="rgb(97,96,96)" stroke="rgb(97,96,96)" stroke-width="1" opacity="0.34509803921568627" d="M 242.5 271 L 236.5 278 L 242.5 271 Z " /><path fill="rgb(97,96,96)" stroke="rgb(97,96,96)" stroke-width="1" opacity="0.34509803921568627" d="M 254.5 271 L 253.5 273 L 254.5 271 Z " /><path fill="rgb(97,96,96)" stroke="rgb(97,96,96)" stroke-width="1" opacity="0.34509803921568627" d="M 251.5 273 L 249.5 276 L 251.5 273 Z " /><path fill="rgb(97,96,96)" stroke="rgb(97,96,96)" stroke-width="1" opacity="0.34509803921568627" d="M 247.5 276 L 245.5 279 L 247.5 276 Z " /><path fill="rgb(97,96,96)" stroke="rgb(97,96,96)" stroke-width="1" opacity="0.34509803921568627" d="M 233.5 279 L 228.5 285 L 233.5 279 Z " /><path fill="rgb(97,96,96)" stroke="rgb(97,96,96)" stroke-width="1" opacity="0.34509803921568627" d="M 243.5 279 L 241.5 282 L 243.5 279 Z " /><path fill="rgb(97,96,96)" stroke="rgb(97,96,96)" stroke-width="1" opacity="0.34509803921568627" d="M 238.5 283 L 237.5 285 L 238.5 283 Z " /><path fill="rgb(97,96,96)" stroke="rgb(97,96,96)" stroke-width="1" opacity="0.34509803921568627" d="M 234.5 286 L 233.5 288 L 234.5 286 Z " /><path fill="rgb(97,96,96)" stroke="rgb(97,96,96)" stroke-width="1" opacity="0.34509803921568627" d="M 223.5 288 L 219.5 293 L 223.5 288 Z " /><path fill="rgb(97,96,96)" stroke="rgb(97,96,96)" stroke-width="1" opacity="0.34509803921568627" d="M 231.5 288 L 229.5 291 L 231.5 288 Z " /><path fill="rgb(97,96,96)" stroke="rgb(97,96,96)" stroke-width="1" opacity="0.34509803921568627" d="M 227.5 291 L 225.5 294 L 227.5 291 Z " /><path fill="rgb(97,96,96)" stroke="rgb(97,96,96)" stroke-width="1" opacity="0.34509803921568627" d="M 223.5 294 L 221.5 297 L 223.5 294 Z " /><path fill="rgb(97,96,96)" stroke="rgb(97,96,96)" stroke-width="1" opacity="0.34509803921568627" d="M 214.5 296 L 208.5 303 L 214.5 296 Z " /><path fill="rgb(97,96,96)" stroke="rgb(97,96,96)" stroke-width="1" opacity="0.34509803921568627" d="M 218.5 298 L 217.5 300 L 218.5 298 Z " /><path fill="rgb(97,96,96)" stroke="rgb(97,96,96)" stroke-width="1" opacity="0.34509803921568627" d="M 215.5 300 L 213.5 303 L 215.5 300 Z " /><path fill="rgb(97,96,96)" stroke="rgb(97,96,96)" stroke-width="1" opacity="0.34509803921568627" d="M 206.5 303 L 200.5 310 L 206.5 303 Z " /><path fill="rgb(97,96,96)" stroke="rgb(97,96,96)" stroke-width="1" opacity="0.34509803921568627" d="M 211.5 303 L 209.5 306 L 211.5 303 Z " /><path fill="rgb(97,96,96)" stroke="rgb(97,96,96)" stroke-width="1" opacity="0.34509803921568627" d="M 207.5 306 L 205.5 309 L 207.5 306 Z " /><path fill="rgb(97,96,96)" stroke="rgb(97,96,96)" stroke-width="1" opacity="0.34509803921568627" d="M 203.5 309 L 201.5 312 L 203.5 309 Z " /><path fill="rgb(97,96,96)" stroke="rgb(97,96,96)" stroke-width="1" opacity="0.34509803921568627" d="M 196.5 312 L 195 314.5 L 196 315.5 L 193.5 318 Q 192.3 315.8 191 318.5 L 189.5 321 L 183.5 325 L 188.5 319 L 196.5 312 Z " /><path fill="rgb(97,96,96)" stroke="rgb(97,96,96)" stroke-width="1" opacity="0.34509803921568627" d="M 199.5 312 L 197.5 315 L 199.5 312 Z " /><path fill="rgb(250,250,250)" stroke="rgb(250,250,250)" stroke-width="1" opacity="0.984313725490196" d="M 200.5 165 L 220.5 165 L 231.5 168 Q 246.3 173.7 255 185.5 L 263 200.5 L 265 209.5 L 265 225.5 L 264 228 L 267.5 227 L 325.5 182 L 324.5 184 L 233.5 265 L 219.5 270 L 200.5 270 Q 177.6 265.4 166 249.5 Q 159.8 241.7 157 230.5 L 156 225.5 L 156 209.5 Q 159.9 188.9 173.5 178 Q 183.9 168.4 200.5 165 Z M 205 190 L 195 195 Q 188 200 185 210 L 185 225 L 192 238 L 198 242 L 206 245 L 216 245 L 226 241 Q 235 235 237 222 Q 238 207 231 200 L 220 191 L 205 190 Z " /><path fill="rgb(250,250,250)" stroke="rgb(250,250,250)" stroke-width="1" opacity="0.984313725490196" d="M 285.5 234 L 347 234 L 347 258 L 317 258 L 317 335 L 289 335 L 289 259.5 L 287.5 258 L 271.5 258 L 191.5 319 L 199.5 310 L 285.5 234 Z " /></svg>